<?xml version="1.0" standalone="yes"?>
<svg xmlns="http://www.w3.org/2000/svg" width="256" height="224">
<path style="fill:#fef7e8; stroke:none;" d="M0 0L0 224L256 224L256 0L0 0z"/>
<path style="fill:#cfb9a1; stroke:none;" d="M210 20L210 21L217 21L210 20z"/>
<path style="fill:#9c6c35; stroke:none;" d="M127 194L127 93C127 82.0201 130.881 61.8609 125.715 52.0602C120.494 42.1544 103.78 35.6378 94 31.4402C82.4921 26.5008 70.3881 23.2794 58 21.5781C54.1624 21.051 47.8562 19.7948 44.4123 22.1497C38.7174 26.0439 42 46.672 42 53L42 133C42 139.056 39.0153 156.65 43.7173 160.965C46.4892 163.509 51.546 162.887 55 163.308C62.7501 164.252 70.5081 166.278 78 168.44C96.6853 173.832 110.149 185.766 127 194M136 195C153.435 186.74 166.768 174.102 186 168.432C193.243 166.297 200.509 164.481 208 163.443C211.439 162.966 216.567 163.636 219.283 161.047C223.991 156.557 221 139.182 221 133L221 53C221 46.672 224.283 26.0439 218.588 22.1497C213.477 18.6548 202.542 21.5064 197 22.6727C181.465 25.9423 166.819 31.5085 153 39.327C147.741 42.3025 140.19 46.5481 137.285 52.0602C132.119 61.8609 136 82.0201 136 93L136 195z"/>
<path style="fill:#b69472; stroke:none;" d="M221 24L221 160L222 160L222 66C222 53.6492 225.323 35.5663 221 24z"/>
<path style="fill:#65441a; stroke:none;" d="M35 36C17.3631 32.3085 22 50.3366 22 63L22 152C22 159.332 18.357 180.922 23.7173 186.283C26.7845 189.35 34.0627 187.995 38 188C49.5453 188.014 61.5082 189.047 73 190.2C84.6002 191.364 97.3983 193.593 108 198.558C115.873 202.244 120.783 209.795 130 209.989C141.154 210.223 144.704 203.892 154 199.362C163.562 194.702 174.513 192.482 185 191.17C197.922 189.553 210.962 188.108 224 188.003C228.282 187.969 236.859 189.636 240.155 186.283C244.187 182.182 242 170.32 242 165L242 104L242 55C242 50.0713 243.809 40.4863 240.283 36.5314C237.475 33.3818 229.827 33.8634 228.412 38.2151C225.334 47.6805 228 62.0498 228 72L228 138C228 145.434 230.306 157.643 225.397 163.844C220.06 170.586 207.671 169.228 200 171.059C183.012 175.114 166.598 181.331 152 191.011C146.434 194.703 138.194 205.063 131 204.124C124.594 203.288 119.008 196.045 114 192.444C104.883 185.887 94.5777 180.639 84 176.881C74.0159 173.333 63.5094 170.684 53 169.315C46.6159 168.483 40.0072 168.457 36.5396 161.936C31.6557 152.753 35 135.233 35 125L35 36z"/>
<path style="fill:#b5a592; stroke:none;" d="M32.6667 35.3333L33.3333 35.6667L32.6667 35.3333z"/>
<path style="fill:#a8937b; stroke:none;" d="M35 36L35 161L36 161L36 75C36 63.4694 39.0385 46.8064 35 36z"/>
<path style="fill:#dbd4cd; stroke:none;" d="M242 38L242 183L243 183L243 83C243 69.8294 246.606 50.3258 242 38z"/>
<path style="fill:#e8e1d8; stroke:none;" d="M21 41L21 184L22 184L22 85C22 72.1027 25.5118 53.0726 21 41z"/>
<path style="fill:#c3a98f; stroke:none;" d="M127 55C127 101.348 122.829 149.899 127 196L128 196L128 98C128 85.3759 131.417 66.8195 127 55z"/>
<path style="fill:#dfd1c0; stroke:none;" d="M135 55L135 160C135 168.13 131.21 190.154 137 196L136 160L136 92L135 55z"/>
<path style="fill:#a79275; stroke:none;" d="M44 168L44 169L47 169L44 168z"/>
<path style="fill:#a49075; stroke:none;" d="M59.6667 170.333L60.3333 170.667L59.6667 170.333z"/>
<path style="fill:#b0a18d; stroke:none;" d="M68.6667 172.333L69.3333 172.667L68.6667 172.333z"/>
<path style="fill:#9c836c; stroke:none;" d="M194.667 172.333L195.333 172.667L194.667 172.333z"/>
<path style="fill:#a69380; stroke:none;" d="M190.667 173.333L191.333 173.667L190.667 173.333z"/>
<path style="fill:#887156; stroke:none;" d="M26 188L26 189L48 189L26 188z"/>
<path style="fill:#84684d; stroke:none;" d="M216 188L216 189L238 189L216 188z"/>
<path style="fill:#a29284; stroke:none;" d="M196 189L196 190L201 190L196 189z"/>
<path style="fill:#a2896d; stroke:none;" d="M73 190L73 191L76 191L73 190z"/>
<path style="fill:#b8ab9b; stroke:none;" d="M95 194L95 195L98 195L95 194z"/>
<path style="fill:#9b8878; stroke:none;" d="M99.6667 195.333L100.333 195.667L99.6667 195.333z"/>
</svg>
